<?xml version="1.0" encoding="UTF-8" standalone="no"?>
<!-- Created with Inkscape (http://www.inkscape.org/) -->
<svg
   xmlns:dc="http://purl.org/dc/elements/1.1/"
   xmlns:cc="http://web.resource.org/cc/"
   xmlns:rdf="http://www.w3.org/1999/02/22-rdf-syntax-ns#"
   xmlns:svg="http://www.w3.org/2000/svg"
   xmlns="http://www.w3.org/2000/svg"
   xmlns:xlink="http://www.w3.org/1999/xlink"
   xmlns:sodipodi="http://sodipodi.sourceforge.net/DTD/sodipodi-0.dtd"
   xmlns:inkscape="http://www.inkscape.org/namespaces/inkscape"
   width="256"
   height="256"
   id="svg2177"
   sodipodi:version="0.32"
   inkscape:version="0.45"
   version="1.0"
   sodipodi:docbase="C:\Users\Mark\Desktop"
   sodipodi:docname="IcarusIcon2.svg"
   inkscape:output_extension="org.inkscape.output.svg.inkscape"
   inkscape:export-filename="C:\Users\Mark\Desktop\IcarusIcon2.png"
   inkscape:export-xdpi="90"
   inkscape:export-ydpi="90"
   sodipodi:modified="TRUE">
  <defs
     id="defs2179">
    <linearGradient
       id="linearGradient4147">
      <stop
         style="stop-color:#ffffff;stop-opacity:1;"
         offset="0"
         id="stop4149" />
      <stop
         id="stop4159"
         offset="0.88135594"
         style="stop-color:#dcdcdc;stop-opacity:1;" />
      <stop
         style="stop-color:#969696;stop-opacity:1;"
         offset="1"
         id="stop4151" />
    </linearGradient>
    <linearGradient
       inkscape:collect="always"
       xlink:href="#linearGradient24701"
       id="linearGradient15810"
       gradientUnits="userSpaceOnUse"
       gradientTransform="matrix(-0.459611,-0.8881203,-0.8881203,0.459611,637.07091,380.63708)"
       x1="224.96486"
       y1="198.68674"
       x2="269.3176"
       y2="205.70918" />
    <linearGradient
       inkscape:collect="always"
       id="linearGradient24701">
      <stop
         style="stop-color:#e6ffe6;stop-opacity:1;"
         offset="0"
         id="stop24703" />
      <stop
         style="stop-color:#e6ffe6;stop-opacity:0;"
         offset="1"
         id="stop24705" />
    </linearGradient>
    <linearGradient
       inkscape:collect="always"
       xlink:href="#linearGradient24701"
       id="linearGradient15828"
       gradientUnits="userSpaceOnUse"
       x1="234.21872"
       y1="209.27835"
       x2="273.45557"
       y2="213.14433" />
    <filter
       inkscape:collect="always"
       id="filter5189">
      <feGaussianBlur
         inkscape:collect="always"
         stdDeviation="2.8403416"
         id="feGaussianBlur5191" />
    </filter>
    <linearGradient
       inkscape:collect="always"
       id="linearGradient4204">
      <stop
         style="stop-color:#000000;stop-opacity:1;"
         offset="0"
         id="stop4206" />
      <stop
         style="stop-color:#000000;stop-opacity:0;"
         offset="1"
         id="stop4208" />
    </linearGradient>
    <radialGradient
       inkscape:collect="always"
       xlink:href="#linearGradient4204"
       id="radialGradient15838"
       gradientUnits="userSpaceOnUse"
       gradientTransform="matrix(-0.9354529,-0.6208409,0.9573424,-1.4424769,185.32923,587.01021)"
       cx="92.389946"
       cy="225.6723"
       fx="92.389946"
       fy="225.6723"
       r="37.113403" />
    <filter
       inkscape:collect="always"
       id="filter7190">
      <feGaussianBlur
         inkscape:collect="always"
         stdDeviation="0.94851248"
         id="feGaussianBlur7192" />
    </filter>
    <radialGradient
       inkscape:collect="always"
       xlink:href="#linearGradient4147"
       id="radialGradient4157"
       cx="39.147766"
       cy="126.24055"
       fx="39.147766"
       fy="126.24055"
       r="71.697594"
       gradientTransform="matrix(1,0,0,0.8650307,0,17.0386)"
       gradientUnits="userSpaceOnUse" />
    <filter
       inkscape:collect="always"
       id="filter7109">
      <feGaussianBlur
         inkscape:collect="always"
         stdDeviation="1.2034506"
         id="feGaussianBlur7111" />
    </filter>
    <filter
       inkscape:collect="always"
       id="filter9053">
      <feGaussianBlur
         inkscape:collect="always"
         stdDeviation="3.1350333"
         id="feGaussianBlur9055" />
    </filter>
    <filter
       inkscape:collect="always"
       x="-0.12188447"
       width="1.2437689"
       y="-0.11817292"
       height="1.2363458"
       id="filter11974">
      <feGaussianBlur
         inkscape:collect="always"
         stdDeviation="10.654511"
         id="feGaussianBlur11976" />
    </filter>
  </defs>
  <sodipodi:namedview
     id="base"
     pagecolor="#ffffff"
     bordercolor="#666666"
     borderopacity="1.0"
     gridtolerance="10000"
     guidetolerance="10"
     objecttolerance="10"
     inkscape:pageopacity="0.0"
     inkscape:pageshadow="2"
     inkscape:zoom="2.2734375"
     inkscape:cx="128"
     inkscape:cy="128"
     inkscape:document-units="px"
     inkscape:current-layer="layer1"
     width="256px"
     height="256px"
     inkscape:window-width="1276"
     inkscape:window-height="776"
     inkscape:window-x="0"
     inkscape:window-y="0" />
  <metadata
     id="metadata2182">
    <rdf:RDF>
      <cc:Work
         rdf:about="">
        <dc:format>image/svg+xml</dc:format>
        <dc:type
           rdf:resource="http://purl.org/dc/dcmitype/StillImage" />
      </cc:Work>
    </rdf:RDF>
  </metadata>
  <g
     inkscape:label="Layer 1"
     inkscape:groupmode="layer"
     id="layer1">
    <path
       sodipodi:type="arc"
       style="opacity:1;fill:#ffffff;fill-opacity:1;stroke:none;stroke-width:2;stroke-miterlimit:4;stroke-dasharray:none;stroke-opacity:1"
       id="path2192"
       sodipodi:cx="-65.319588"
       sodipodi:cy="102.48798"
       sodipodi:rx="39.80756"
       sodipodi:ry="37.828178"
       d="M -25.512028 102.48798 A 39.80756 37.828178 0 1 1  -105.12715,102.48798 A 39.80756 37.828178 0 1 1  -25.512028 102.48798 z"
       transform="matrix(3.2154696,0,0,3.383721,338.03315,-218.79074)"
       inkscape:export-xdpi="90"
       inkscape:export-ydpi="90"
       inkscape:export-filename="C:\Users\Mark\Desktop\IcarusIcon2.png" />
    <path
       sodipodi:type="arc"
       style="opacity:0.65;fill:url(#radialGradient4157);fill-opacity:1.0;stroke:none;stroke-width:2;stroke-miterlimit:4;stroke-dasharray:none;stroke-opacity:1"
       id="path2205"
       sodipodi:cx="39.147766"
       sodipodi:cy="126.24055"
       sodipodi:rx="71.697594"
       sodipodi:ry="62.020618"
       d="M 110.84536 126.24055 A 71.697594 62.020618 0 1 1  -32.549828,126.24055 A 71.697594 62.020618 0 1 1  110.84536 126.24055 z"
       transform="matrix(1.7852761,0,0,2.0638298,58.110429,-132.539)" />
    <path
       sodipodi:nodetypes="cssssssszsc"
       id="path9057"
       d="M 141.77053,52.994294 C 152.05154,53.653397 169.16974,87.307689 180.51393,97.085749 C 191.85818,106.8638 231.80252,115.66525 231.68952,129.59663 C 231.59434,141.33239 228.08172,145.17858 222.28776,158.98915 C 216.49379,172.79974 226.17065,203.82248 215.94323,208.10178 C 204.87233,212.73406 172.62368,198.15545 157.69858,196.91279 C 142.77348,195.67014 75.611833,241.72952 64.267593,231.95145 C 52.923334,222.1734 79.646223,145.46791 76.215923,130.88932 C 72.785623,116.31074 51.901054,84.674399 57.953914,75.393389 C 63.655243,66.651359 101.68041,71.200149 114.48545,63.432739 C 127.29049,55.665327 132.53776,54.099824 141.77053,52.994294 z "
       style="opacity:0.8;fill:#000000;fill-opacity:1;stroke:none;stroke-width:0.74145913;stroke-miterlimit:4;stroke-opacity:1;display:inline;filter:url(#filter11974)" />
    <g
       style="display:inline"
       id="g2262"
       transform="matrix(1.3799601,0.2291889,-0.2291889,1.3799601,-225.98033,-251.40579)">
      <path
         sodipodi:nodetypes="cssssssszsc"
         id="path2164"
         d="M 289.156,164.82486 C 296.48342,164.08552 312.49699,185.8138 321.64222,191.38068 C 330.7875,196.94755 359.98735,198.47597 361.53935,208.3137 C 362.84676,216.60098 360.82012,219.72475 358.35172,230.14266 C 355.88332,240.56058 366.34099,261.30463 359.62975,265.52029 C 352.36503,270.08366 327.91558,263.5798 317.24476,264.45155 C 306.57395,265.3233 264.60575,305.67086 255.46048,300.10398 C 246.3152,294.53711 256.17635,237.31404 252.04979,227.43489 C 247.92323,217.55575 229.48995,197.69168 232.67144,190.43772 C 235.66816,183.60503 263.01652,182.35923 271.13697,175.38184 C 279.25742,168.40444 282.77447,166.68586 289.156,164.82486 z "
         style="fill:#3cdc1e;fill-opacity:1;stroke:none;stroke-width:0.74145913;stroke-miterlimit:4;stroke-opacity:1;display:inline" />
      <path
         sodipodi:nodetypes="cscscsssssc"
         id="path4202"
         d="M 356.73414,261.98338 C 341.41297,253.27237 313.00592,210.74057 311.40511,210.60501 C 309.80429,210.46944 272.22216,284.33733 259.26242,294.29703 C 274.9295,271.9598 309.80267,210.46803 309.43692,208.90367 C 309.07118,207.33931 254.10819,201.24983 236.74829,193.53008 C 249.11624,197.55467 309.07201,207.33734 310.44678,206.50608 C 311.82156,205.67482 288.23502,169.65096 289.83584,169.78652 C 291.43665,169.92209 311.82369,205.675 313.0391,206.72562 C 314.2545,207.77623 357.0252,208.92041 357.39095,210.48476 C 357.75669,212.04912 314.25499,207.77832 313.63137,209.25889 C 313.00776,210.73947 341.96045,248.67377 356.73414,261.98338 z "
         style="fill:#8cfa8c;fill-opacity:1;stroke:none;stroke-width:2;stroke-miterlimit:4;stroke-opacity:1;display:inline;filter:url(#filter7190)" />
      <path
         sodipodi:nodetypes="ccccccc"
         id="path2262"
         d="M 357.73196,206.18557 C 351.54639,222.34846 349.72371,238.07011 353.51598,259.15825 C 328.95773,259.11238 291.45773,269.58764 269.58762,279.89692 C 264.72783,264.433 253.25876,217.61753 241.32938,194.2098 C 266.5134,183.1732 268.5567,179.56495 286.08247,169.07217 C 297.42268,172.82887 305.74433,178.35051 318.55669,193.29896 C 333.43092,197.93814 343.81443,197.05567 357.73196,206.18557 z "
         style="opacity:0.45901639;fill:url(#radialGradient15838);fill-opacity:1;stroke:none;stroke-width:5;stroke-miterlimit:4;stroke-opacity:1;display:inline;filter:url(#filter5189)" />
      <path
         sodipodi:nodetypes="ccczczcssszsc"
         id="path14970"
         d="M 289.156,164.82486 C 279.47311,170.52882 276.67225,172.66947 273.18861,177.20542 C 263.51946,184.06095 235.50281,184.81618 234.99296,192.59205 C 234.61574,200.60167 248.95681,216.0336 254.11275,227.25651 C 259.02823,237.95601 249.08234,291.34747 256.8171,298.10758 C 265.06733,303.06356 308.25143,261.32476 317.37234,262.10142 C 326.49325,262.87809 346.49563,266.20154 359.62975,265.52029 C 352.36503,270.08366 327.91558,263.5798 317.24476,264.45155 C 306.57395,265.3233 264.60575,305.67086 255.46048,300.10398 C 246.3152,294.53711 256.17635,237.31404 252.04979,227.43489 C 247.92323,217.55575 229.48995,197.69168 232.67144,190.43772 C 235.66816,183.60503 263.01652,182.35923 271.13697,175.38184 C 279.25742,168.40444 282.77447,166.68586 289.156,164.82486 z "
         style="fill:#e6ffe6;fill-opacity:1;stroke:none;stroke-width:0.74145913;stroke-miterlimit:4;stroke-opacity:1;display:inline" />
      <path
         sodipodi:nodetypes="ccczccz"
         id="rect23729"
         d="M 234.53609,191.23712 C 237.6933,186.08248 272.16494,176.5464 272.16494,176.5464 C 272.16494,176.5464 282.24871,164.78738 288.40206,166.10825 C 294.81314,193.46006 279.67138,183.89176 272.93814,207.2165 C 266.0272,231.15681 279.05927,270.42527 256.31443,298.58248 C 250.06443,288.8531 254.38145,230.15465 254.38145,230.15465 C 254.38145,230.15465 231.26332,196.58041 234.53609,191.23712 z "
         style="opacity:0.8;fill:url(#linearGradient15828);fill-opacity:1;stroke:none;stroke-width:2;stroke-miterlimit:4;stroke-opacity:1" />
      <path
         sodipodi:nodetypes="ccccccz"
         id="path25704"
         d="M 358.91851,265.39015 C 364.62268,260.73249 356.73285,235.01299 356.73285,235.01299 C 356.73285,235.01299 361.25301,216.52911 360.60229,208.83623 C 333.36399,215.71361 337.99637,220.12445 333.77792,237.8556 C 306.9295,243.14091 282.04408,267.14085 256.66613,299.50918 C 268.17956,300.5882 316.26484,263.07468 316.26484,263.07468 C 316.26484,263.07468 353.36754,269.92272 358.91851,265.39015 z "
         style="opacity:0.8;fill:url(#linearGradient15810);fill-opacity:1;stroke:none;stroke-width:2;stroke-miterlimit:4;stroke-opacity:1;display:inline" />
    </g>
    <path
       style="opacity:1;fill:#ffffff;fill-opacity:1;stroke:none;stroke-width:2;stroke-miterlimit:4;stroke-opacity:1;filter:url(#filter7109)"
       d="M 129.87033,6.9139722 C 108.7965,7.7276632 57.999364,28.325136 45.971377,43.20661 C 53.767462,26.328599 97.063621,4.7286291 129.87033,6.9139722 z "
       id="path5148"
       sodipodi:nodetypes="ccc" />
    <path
       style="opacity:1;fill:#000000;fill-opacity:1;stroke:none;stroke-width:2;stroke-miterlimit:4;stroke-opacity:1;filter:url(#filter9053)"
       d="M 265.12,231.22568 C 179.88129,190.28595 88.718234,240.84054 77.825843,338.16466 C 78.092992,240.84708 186.08799,181.18211 265.12,231.22568 z "
       id="path7113"
       sodipodi:nodetypes="ccc"
       transform="matrix(-0.9970457,7.6810733e-2,-7.6810733e-2,-0.9970457,355.3786,450.10697)" />
  </g>
</svg>
